<svg width="1920" height="773" viewBox="0 0 1920 773" fill="none" xmlns="http://www.w3.org/2000/svg">
<mask id="mask0_1463_9450" style="mask-type:alpha" maskUnits="userSpaceOnUse" x="0" y="0" width="1920" height="773">
<rect width="1920" height="773" fill="#D9D9D9"/>
</mask>
<g mask="url(#mask0_1463_9450)">
<path d="M1300.89 521.568C1087.82 527.474 1025.48 308.632 1191.39 135.619C1357.3 -37.3945 1627.49 -23.5332 1814.79 89.8461C2010.42 208.268 1988.6 534.138 1952.84 670.617L1926 773.081H439.999C1111 773.081 1296.39 697.143 1351.73 672.96C1428.12 639.575 1481.7 516.557 1300.89 521.568Z" fill="url(#paint0_linear_1463_9450)" fill-opacity="0.7"/>
<circle cx="85" cy="482" r="258" fill="url(#paint1_linear_1463_9450)" fill-opacity="0.7"/>
<circle cx="752" cy="624" r="102" fill="url(#paint2_linear_1463_9450)" fill-opacity="0.7"/>
<circle cx="89.5" cy="69.5" r="49.5" fill="url(#paint3_linear_1463_9450)" fill-opacity="0.7"/>
</g>
<defs>
<linearGradient id="paint0_linear_1463_9450" x1="2262" y1="899" x2="981.499" y2="63" gradientUnits="userSpaceOnUse">
<stop stop-color="#E7FAFF"/>
<stop offset="1" stop-color="#E8FFFE"/>
</linearGradient>
<linearGradient id="paint1_linear_1463_9450" x1="471.128" y1="824.593" x2="-138.165" y2="701.487" gradientUnits="userSpaceOnUse">
<stop stop-color="#E7FAFF"/>
<stop offset="1" stop-color="#E8FFFE"/>
</linearGradient>
<linearGradient id="paint2_linear_1463_9450" x1="904.655" y1="759.444" x2="663.772" y2="710.774" gradientUnits="userSpaceOnUse">
<stop stop-color="#E7FAFF"/>
<stop offset="1" stop-color="#E8FFFE"/>
</linearGradient>
<linearGradient id="paint3_linear_1463_9450" x1="163.583" y1="135.23" x2="46.6834" y2="111.611" gradientUnits="userSpaceOnUse">
<stop stop-color="#E7FAFF"/>
<stop offset="1" stop-color="#E8FFFE"/>
</linearGradient>
</defs>
</svg>
